<svg width="41" height="41" viewBox="0 0 41 41" fill="none" xmlns="http://www.w3.org/2000/svg">
<path d="M34.0177 20.5V10.0817C34.0178 9.95012 33.992 9.81983 33.9417 9.69828C33.8913 9.57673 33.8175 9.46631 33.7244 9.37334L28.4777 4.12668C28.2904 3.93909 28.0362 3.83358 27.7711 3.83334H8.35107C8.08586 3.83334 7.8315 3.9387 7.64397 4.12624C7.45643 4.31377 7.35107 4.56813 7.35107 4.83334V36.1667C7.35107 36.4319 7.45643 36.6862 7.64397 36.8738C7.8315 37.0613 8.08586 37.1667 8.35107 37.1667H19.0177M14.0177 17.1667H27.3511M14.0177 10.5H20.6844M14.0177 23.8333H19.0177M30.6077 28.7333L32.2744 27.0667C32.4479 26.893 32.654 26.7553 32.8807 26.6613C33.1075 26.5673 33.3506 26.5189 33.5961 26.5189C33.8416 26.5189 34.0846 26.5673 34.3114 26.6613C34.5382 26.7553 34.7442 26.893 34.9177 27.0667C35.268 27.417 35.4647 27.8921 35.4647 28.3875C35.4647 28.8829 35.268 29.358 34.9177 29.7083L33.2511 31.375M30.6077 28.7317L25.6227 33.7167C25.3735 33.9667 25.2101 34.2894 25.1561 34.6383L24.7494 37.2333L27.3444 36.8283C27.6933 36.7743 28.016 36.6109 28.2661 36.3617L33.2494 31.375M30.6077 28.7317L33.2511 31.375" stroke="url(#paint0_linear_173_1235)" stroke-width="2.5" stroke-linecap="round" stroke-linejoin="round"/>
<path d="M27.3511 3.83334V9.50001C27.3511 9.76523 27.4564 10.0196 27.644 10.2071C27.8315 10.3947 28.0859 10.5 28.3511 10.5H34.0177" stroke="url(#paint1_linear_173_1235)" stroke-width="2.5" stroke-linecap="round" stroke-linejoin="round"/>
<defs>
<linearGradient id="paint0_linear_173_1235" x1="15.0292" y1="-23.4939" x2="57.0783" y2="-6.27968" gradientUnits="userSpaceOnUse">
<stop stop-color="#DB00FF"/>
<stop offset="1" stop-color="#00F0FF"/>
</linearGradient>
<linearGradient id="paint1_linear_173_1235" x1="29.1718" y1="-1.6212" x2="38.587" y2="2.95801" gradientUnits="userSpaceOnUse">
<stop stop-color="#DB00FF"/>
<stop offset="1" stop-color="#00F0FF"/>
</linearGradient>
</defs>
</svg>
