<svg width="134" height="147" viewBox="0 0 134 147" fill="none" xmlns="http://www.w3.org/2000/svg">
<path d="M133.331 33.3715C113.705 33.04 94.1393 27.4492 76.3918 17.0112C58.6606 27.4492 39.0952 33.04 19.465 33.3715C15.4644 76.008 28.3893 127.312 76.3918 146.372C124.411 127.312 137.287 76.008 133.331 33.3715V33.3715Z" fill="url(#paint0_linear_176_1435)"/>
<path d="M119.959 44.7184C104.942 44.4647 89.971 40.1868 76.3911 32.2C62.8237 40.1868 47.8527 44.4647 32.8322 44.7184C29.7711 77.3427 39.6609 116.599 76.3911 131.184C113.134 116.599 122.986 77.3427 119.959 44.7184Z" fill="#DDE8FE"/>
<path d="M69.1227 83.925V71.9271C69.1228 70.7241 69.3195 69.533 69.7015 68.4226C70.0834 67.3122 70.6431 66.3046 71.3481 65.4579C72.0531 64.6112 72.8895 63.9423 73.8089 63.4897C74.7284 63.0371 75.7127 62.8099 76.705 62.8211H77.5303C78.5227 62.8094 79.5072 63.0364 80.4268 63.4888C81.3465 63.9412 82.183 64.6101 82.8881 65.4569C83.5932 66.3036 84.1528 67.3114 84.5346 68.422C84.9165 69.5326 85.1129 70.7239 85.1126 71.9271V75.9689C85.1144 76.2399 85.2036 76.4993 85.3613 76.6915C85.5189 76.8836 85.7324 76.9932 85.956 76.9968L89.9489 77.0188C90.0606 77.0193 90.1713 76.9931 90.2746 76.9417C90.3779 76.8903 90.4719 76.8146 90.551 76.7192C90.6302 76.6237 90.6931 76.5102 90.736 76.3852C90.779 76.2602 90.8012 76.1262 90.8013 75.9908V72.5959C90.8018 70.5133 90.4635 68.451 89.8059 66.527C89.1482 64.603 88.1841 62.8551 86.9687 61.3833C85.7533 59.9115 84.3105 58.7447 82.7228 57.9496C81.135 57.1544 79.4335 56.7466 77.7157 56.7495H76.5196C74.8022 56.7477 73.1013 57.1562 71.5142 57.9518C69.9271 58.7473 68.4849 59.9143 67.2701 61.386C66.0552 62.8577 65.0915 64.6052 64.434 66.5287C63.7766 68.4521 63.4383 70.5139 63.4385 72.5959V84.2457L69.1227 83.925Z" fill="#54506E"/>
<path d="M92.6897 103.487C93.6892 103.484 94.6471 103.087 95.3538 102.381C96.0605 101.676 96.4587 100.719 96.4611 99.7216V78.3075C96.4586 77.3097 96.0605 76.3534 95.3538 75.6478C94.6471 74.9422 93.6892 74.5447 92.6897 74.5422H61.5487C60.5492 74.5447 59.5914 74.9422 58.8847 75.6478C58.1779 76.3534 57.7798 77.3097 57.7773 78.3075V99.7216C57.7798 100.719 58.1779 101.676 58.8847 102.381C59.5914 103.087 60.5492 103.484 61.5487 103.487H92.6897Z" fill="#54506E"/>
<path d="M77.1196 81.8877C76.0489 81.8914 75.0232 82.3177 74.2662 83.0736C73.5092 83.8296 73.0825 84.8538 73.0791 85.9227C73.0976 86.5296 73.2553 87.1242 73.5401 87.6607C73.8249 88.1973 74.2291 88.6614 74.7218 89.0175V93.7523C74.7218 94.3872 74.9744 94.9961 75.4241 95.445C75.8737 95.8939 76.4836 96.1462 77.1196 96.1462C77.7555 96.1462 78.3654 95.8939 78.8151 95.445C79.2648 94.9961 79.5174 94.3872 79.5174 93.7523V89.0175C80.0093 88.6607 80.413 88.1963 80.6976 87.66C80.9823 87.1236 81.1405 86.5294 81.16 85.9227C81.1567 84.8538 80.7299 83.8296 79.973 83.0736C79.216 82.3177 78.1902 81.8914 77.1196 81.8877Z" fill="white"/>
<path d="M41.7323 6.59968C43.4408 6.59968 44.8258 5.21689 44.8258 3.51114C44.8258 1.80539 43.4408 0.422607 41.7323 0.422607C40.0237 0.422607 38.6387 1.80539 38.6387 3.51114C38.6387 5.21689 40.0237 6.59968 41.7323 6.59968Z" fill="url(#paint1_linear_176_1435)" fill-opacity="0.2"/>
<path d="M52.6209 5.62188C53.6064 5.62188 54.4053 4.82427 54.4053 3.84036C54.4053 2.85645 53.6064 2.05884 52.6209 2.05884C51.6354 2.05884 50.8364 2.85645 50.8364 3.84036C50.8364 4.82427 51.6354 5.62188 52.6209 5.62188Z" fill="url(#paint2_linear_176_1435)" fill-opacity="0.2"/>
<path d="M53.6793 17.997C56.0419 17.997 57.9572 16.0848 57.9572 13.726C57.9572 11.3673 56.0419 9.45508 53.6793 9.45508C51.3167 9.45508 49.4014 11.3673 49.4014 13.726C49.4014 16.0848 51.3167 17.997 53.6793 17.997Z" fill="url(#paint3_linear_176_1435)" fill-opacity="0.2"/>
<path d="M125.459 139.357C128.739 139.357 131.398 136.702 131.398 133.427C131.398 130.153 128.739 127.498 125.459 127.498C122.179 127.498 119.52 130.153 119.52 133.427C119.52 136.702 122.179 139.357 125.459 139.357Z" fill="url(#paint4_linear_176_1435)" fill-opacity="0.2"/>
<path d="M117.154 127.715C118.862 127.715 120.247 126.332 120.247 124.626C120.247 122.92 118.862 121.538 117.154 121.538C115.445 121.538 114.06 122.92 114.06 124.626C114.06 126.332 115.445 127.715 117.154 127.715Z" fill="url(#paint5_linear_176_1435)" fill-opacity="0.2"/>
<path d="M124.355 118.248C125.341 118.248 126.14 117.451 126.14 116.467C126.14 115.483 125.341 114.685 124.355 114.685C123.37 114.685 122.571 115.483 122.571 116.467C122.571 117.451 123.37 118.248 124.355 118.248Z" fill="url(#paint6_linear_176_1435)" fill-opacity="0.2"/>
<path d="M3.09455 118.383C4.80309 118.383 6.18814 117 6.18814 115.294C6.18814 113.588 4.80309 112.206 3.09455 112.206C1.38602 112.206 0.000976562 113.588 0.000976562 115.294C0.000976562 117 1.38602 118.383 3.09455 118.383Z" fill="url(#paint7_linear_176_1435)" fill-opacity="0.2"/>
<path d="M10.2971 108.916C11.2826 108.916 12.0816 108.118 12.0816 107.134C12.0816 106.15 11.2826 105.353 10.2971 105.353C9.31162 105.353 8.5127 106.15 8.5127 107.134C8.5127 108.118 9.31162 108.916 10.2971 108.916Z" fill="url(#paint8_linear_176_1435)" fill-opacity="0.2"/>
<path d="M18.5963 116.9C20.9589 116.9 22.8742 114.988 22.8742 112.629C22.8742 110.27 20.9589 108.358 18.5963 108.358C16.2337 108.358 14.3184 110.27 14.3184 112.629C14.3184 114.988 16.2337 116.9 18.5963 116.9Z" fill="url(#paint9_linear_176_1435)" fill-opacity="0.2"/>
<defs>
<linearGradient id="paint0_linear_176_1435" x1="50.2502" y1="-88.8298" x2="219.67" y2="-15.4394" gradientUnits="userSpaceOnUse">
<stop stop-color="#DB00FF"/>
<stop offset="1" stop-color="#00F0FF"/>
</linearGradient>
<linearGradient id="paint1_linear_176_1435" x1="40.3284" y1="-4.63136" x2="49.061" y2="-0.377224" gradientUnits="userSpaceOnUse">
<stop stop-color="#DB00FF"/>
<stop offset="1" stop-color="#00F0FF"/>
</linearGradient>
<linearGradient id="paint2_linear_176_1435" x1="51.8111" y1="-0.856382" x2="56.8482" y2="1.59749" gradientUnits="userSpaceOnUse">
<stop stop-color="#DB00FF"/>
<stop offset="1" stop-color="#00F0FF"/>
</linearGradient>
<linearGradient id="paint3_linear_176_1435" x1="51.7381" y1="2.46623" x2="63.8138" y2="8.34904" gradientUnits="userSpaceOnUse">
<stop stop-color="#DB00FF"/>
<stop offset="1" stop-color="#00F0FF"/>
</linearGradient>
<linearGradient id="paint4_linear_176_1435" x1="122.764" y1="117.795" x2="139.529" y2="125.962" gradientUnits="userSpaceOnUse">
<stop stop-color="#DB00FF"/>
<stop offset="1" stop-color="#00F0FF"/>
</linearGradient>
<linearGradient id="paint5_linear_176_1435" x1="115.75" y1="116.484" x2="124.482" y2="120.738" gradientUnits="userSpaceOnUse">
<stop stop-color="#DB00FF"/>
<stop offset="1" stop-color="#00F0FF"/>
</linearGradient>
<linearGradient id="paint6_linear_176_1435" x1="123.545" y1="111.77" x2="128.583" y2="114.224" gradientUnits="userSpaceOnUse">
<stop stop-color="#DB00FF"/>
<stop offset="1" stop-color="#00F0FF"/>
</linearGradient>
<linearGradient id="paint7_linear_176_1435" x1="1.69075" y1="107.152" x2="10.4233" y2="111.406" gradientUnits="userSpaceOnUse">
<stop stop-color="#DB00FF"/>
<stop offset="1" stop-color="#00F0FF"/>
</linearGradient>
<linearGradient id="paint8_linear_176_1435" x1="9.48739" y1="102.438" x2="14.5245" y2="104.891" gradientUnits="userSpaceOnUse">
<stop stop-color="#DB00FF"/>
<stop offset="1" stop-color="#00F0FF"/>
</linearGradient>
<linearGradient id="paint9_linear_176_1435" x1="16.655" y1="101.369" x2="28.7308" y2="107.252" gradientUnits="userSpaceOnUse">
<stop stop-color="#DB00FF"/>
<stop offset="1" stop-color="#00F0FF"/>
</linearGradient>
</defs>
</svg>
