<svg width="24" height="25" viewBox="0 0 24 25" fill="none" xmlns="http://www.w3.org/2000/svg">
<path d="M4.5 13C7.5 6.5 16.5 6.5 19.5 13M12 16.5C11.4696 16.5 10.9609 16.2893 10.5858 15.9142C10.2107 15.5391 10 15.0304 10 14.5C10 13.9696 10.2107 13.4609 10.5858 13.0858C10.9609 12.7107 11.4696 12.5 12 12.5C12.5304 12.5 13.0391 12.7107 13.4142 13.0858C13.7893 13.4609 14 13.9696 14 14.5C14 15.0304 13.7893 15.5391 13.4142 15.9142C13.0391 16.2893 12.5304 16.5 12 16.5Z" stroke="#0B062D" stroke-width="1.5" stroke-linecap="round" stroke-linejoin="round"/>
</svg>
