<svg width="25" height="25" viewBox="0 0 25 25" fill="none" xmlns="http://www.w3.org/2000/svg">
<path d="M7.5 9.5L12.5 13L17.5 9.5" stroke="#0B062D" stroke-width="1.5" stroke-linecap="round" stroke-linejoin="round"/>
<path d="M2.5 17.5V7.5C2.5 6.96957 2.71071 6.46086 3.08579 6.08579C3.46086 5.71071 3.96957 5.5 4.5 5.5H20.5C21.0304 5.5 21.5391 5.71071 21.9142 6.08579C22.2893 6.46086 22.5 6.96957 22.5 7.5V17.5C22.5 18.0304 22.2893 18.5391 21.9142 18.9142C21.5391 19.2893 21.0304 19.5 20.5 19.5H4.5C3.96957 19.5 3.46086 19.2893 3.08579 18.9142C2.71071 18.5391 2.5 18.0304 2.5 17.5Z" stroke="#0B062D" stroke-width="1.5"/>
</svg>
