<svg width="25" height="25" viewBox="0 0 25 25" fill="none" xmlns="http://www.w3.org/2000/svg">
<path d="M16.5 12.5H17.9C18.0591 12.5 18.2117 12.5632 18.3243 12.6757C18.4368 12.7883 18.5 12.9409 18.5 13.1V19.9C18.5 20.0591 18.4368 20.2117 18.3243 20.3243C18.2117 20.4368 18.0591 20.5 17.9 20.5H7.1C6.94087 20.5 6.78826 20.4368 6.67574 20.3243C6.56321 20.2117 6.5 20.0591 6.5 19.9V13.1C6.5 12.9409 6.56321 12.7883 6.67574 12.6757C6.78826 12.5632 6.94087 12.5 7.1 12.5H8.5M16.5 12.5V8.5C16.5 7.167 15.7 4.5 12.5 4.5C9.3 4.5 8.5 7.167 8.5 8.5V12.5M16.5 12.5H8.5" stroke="#0B062D" stroke-width="1.5" stroke-linecap="round" stroke-linejoin="round"/>
</svg>
