<svg width="25" height="25" viewBox="0 0 25 25" fill="none" xmlns="http://www.w3.org/2000/svg">
<path d="M12.5 2.5C6.977 2.5 2.5 6.977 2.5 12.5C2.5 18.023 6.977 22.5 12.5 22.5C18.023 22.5 22.5 18.023 22.5 12.5C22.5 6.977 18.023 2.5 12.5 2.5Z" stroke="#0B062D" stroke-width="1.5" stroke-linecap="round" stroke-linejoin="round"/>
<path d="M4.77148 18.846C4.77148 18.846 7.00048 16 12.5005 16C18.0005 16 20.2305 18.846 20.2305 18.846M12.5005 12.5C13.2961 12.5 14.0592 12.1839 14.6218 11.6213C15.1844 11.0587 15.5005 10.2956 15.5005 9.5C15.5005 8.70435 15.1844 7.94129 14.6218 7.37868C14.0592 6.81607 13.2961 6.5 12.5005 6.5C11.7048 6.5 10.9418 6.81607 10.3792 7.37868C9.81655 7.94129 9.50048 8.70435 9.50048 9.5C9.50048 10.2956 9.81655 11.0587 10.3792 11.6213C10.9418 12.1839 11.7048 12.5 12.5005 12.5V12.5Z" stroke="#0B062D" stroke-width="1.5" stroke-linecap="round" stroke-linejoin="round"/>
</svg>
