<svg width="61" height="61" viewBox="0 0 61 61" fill="none" xmlns="http://www.w3.org/2000/svg">
<g clip-path="url(#clip0_171_1213)">
<path d="M31.4699 58.4121C31.363 57.3516 32.1111 56.3967 33.1799 56.2907C34.2487 56.1847 35.2106 56.9274 35.3174 57.9879C35.4243 59.0484 34.6762 60.0028 33.6074 60.1088C33.5006 60.1088 33.3937 60.1088 33.3937 60.1088C32.4318 60.1088 31.5768 59.4726 31.4699 58.4121ZM19.2861 58.4121C18.3242 57.9879 17.7898 56.9274 18.2173 55.973C18.5379 55.0186 19.7136 54.4879 20.6755 54.806C21.6373 55.2302 22.1717 56.2907 21.8511 57.2451C21.5305 57.9879 20.7823 58.5181 20.0342 58.5181C19.7136 58.5181 19.4998 58.5181 19.2861 58.4121ZM44.5087 54.594C43.8675 53.7456 44.0812 52.5791 45.0431 51.9428C45.8981 51.3065 47.0738 51.5186 47.7148 52.473C48.3561 53.3214 48.1423 54.4879 47.1806 55.1242C46.86 55.3363 46.4325 55.4428 46.1119 55.4428C45.4706 55.3367 44.8293 55.1242 44.5087 54.594ZM7.316 50.246C6.56787 49.5037 6.67475 48.2312 7.42287 47.4888C8.171 46.7467 9.4535 46.8527 10.2016 47.7009C10.9497 48.4433 10.8429 49.7158 9.98787 50.4581C9.66725 50.7763 9.13287 50.9884 8.70537 50.9884C8.27787 50.8823 7.7435 50.6702 7.316 50.246ZM54.1273 45.0499C53.1655 44.5197 52.8448 43.3532 53.2723 42.5048C53.8067 41.5504 54.9823 41.2322 55.8373 41.6564C56.7992 42.1866 57.1203 43.3532 56.6923 44.2015C56.3717 44.8378 55.6236 45.262 54.9823 45.262C54.7686 45.262 54.448 45.262 54.1273 45.0499ZM0.58282 37.6266C0.369069 36.5661 1.01033 35.6117 1.97221 35.2936C3.04097 35.0815 4.00284 35.6117 4.32347 36.6722C4.53722 37.7327 3.89596 38.6871 2.93408 39.0053C2.82721 39.0053 2.61346 39.1113 2.50659 39.1113C1.65158 39.0053 0.796572 38.475 0.58282 37.6266ZM56.3717 30.3094C56.3717 29.1428 57.2272 28.2945 58.2959 28.2945C59.3647 28.2945 60.2197 29.1428 60.2197 30.2033C60.2197 30.2033 60.2197 30.2033 60.2197 30.3094C60.2197 30.3094 60.2197 30.3093 60.2197 30.4154C60.2197 31.4759 59.3647 32.3242 58.2959 32.3242C57.2272 32.2182 56.3717 31.3698 56.3717 30.3094ZM1.97221 25.5372C0.903451 25.3251 0.262193 24.2647 0.58282 23.2042C0.796572 22.1437 1.86532 21.5074 2.93408 21.8256C4.00284 22.0377 4.6441 23.0981 4.32347 24.1586C4.10972 25.007 3.36159 25.6433 2.3997 25.6433C2.29283 25.6433 2.18596 25.5372 1.97221 25.5372ZM53.2723 18.1139C52.738 17.1595 53.1655 15.993 54.1273 15.5688C55.0892 15.0386 56.2648 15.4627 56.6923 16.3111C57.2272 17.2656 56.7997 18.4321 55.9442 18.8563C55.6236 18.9623 55.303 19.0683 55.0892 19.0683C54.2342 19.1744 53.593 18.7502 53.2723 18.1139ZM7.42287 13.2357C6.67475 12.4934 6.56787 11.3269 7.20912 10.5846C7.95725 9.73619 9.13287 9.73619 9.881 10.3725C10.6291 11.1148 10.736 12.2813 10.0947 13.1297C9.66725 13.5539 9.13287 13.766 8.5985 13.766C8.27787 13.66 7.85037 13.5539 7.42287 13.2357ZM44.8293 8.78177C43.9743 8.14549 43.7606 6.97898 44.295 6.1306C44.9362 5.28223 46.1119 5.07013 46.9669 5.60037C47.8217 6.23665 48.0355 7.40316 47.5011 8.25153C47.1806 8.78177 46.5394 9.09991 45.8981 9.09991C45.5775 9.09991 45.15 8.99386 44.8293 8.78177ZM18.0035 4.75196C17.576 3.79754 18.1104 2.63103 19.0723 2.31289C20.0342 1.8887 21.2098 2.41894 21.5305 3.37336C21.958 4.32779 21.4236 5.49428 20.4617 5.81242C20.248 5.91847 20.0342 5.91851 19.8205 5.91851C19.0723 6.02456 18.3242 5.60033 18.0035 4.75196ZM33.0731 4.32778C32.0043 4.22173 31.2561 3.26731 31.363 2.20684C31.4699 1.14637 32.4318 0.404028 33.5006 0.510075C34.5693 0.616122 35.3174 1.57055 35.2106 2.63102C35.1037 3.58545 34.2487 4.32778 33.2868 4.32778C33.1799 4.43383 33.1799 4.32778 33.0731 4.32778Z" fill="url(#paint0_linear_171_1213)"/>
<path d="M31.2566 53.3218C31.1497 52.4734 31.7909 51.7311 32.6459 51.625C33.5009 51.519 34.2491 52.1553 34.3559 53.0037C34.4628 53.852 33.8216 54.5943 32.9666 54.7004C32.8597 54.7004 32.8597 54.7004 32.7528 54.7004C32.0047 54.7004 31.2566 54.1702 31.2566 53.3218ZM21.2102 53.3218C20.3552 53.0037 20.0346 52.1553 20.2484 51.3069C20.569 50.4585 21.424 50.1404 22.279 50.3525C23.134 50.6706 23.4547 51.519 23.2409 52.3674C23.0272 53.0037 22.3859 53.4278 21.7446 53.4278C21.5309 53.4278 21.424 53.4278 21.2102 53.3218ZM41.8372 50.1404C41.3029 49.3981 41.5166 48.4437 42.2647 47.9134C43.0129 47.3832 43.9748 47.5953 44.5092 48.3376C45.0435 49.0799 44.8298 50.0343 44.0817 50.5646C43.761 50.7767 43.4404 50.8827 43.2267 50.8827C42.5854 50.7767 42.1579 50.5646 41.8372 50.1404ZM11.4846 46.6408C10.9502 46.0045 10.9502 45.0502 11.5914 44.4139C12.2327 43.8836 13.1946 43.8836 13.8358 44.5199C14.3702 45.1562 14.3702 46.1106 13.7289 46.7469C13.4083 46.959 13.0877 47.1711 12.6602 47.1711C12.2327 47.1711 11.8052 46.959 11.4846 46.6408ZM49.7462 42.399C48.9981 41.9748 48.6774 41.0203 49.1049 40.278C49.5324 39.5356 50.4943 39.2176 51.2424 39.6417C51.9906 40.0659 52.3112 41.0203 51.8837 41.7627C51.563 42.2929 51.0287 42.611 50.4943 42.611C50.1737 42.611 49.9599 42.505 49.7462 42.399ZM5.92702 36.2482C5.71327 35.3998 6.24764 34.5515 7.10264 34.3394C7.95769 34.1273 8.81269 34.6575 9.02644 35.5059C9.24019 36.3542 8.70581 37.2026 7.85077 37.4147C7.74389 37.4147 7.63706 37.4147 7.42331 37.4147C6.78202 37.4147 6.14077 36.9905 5.92702 36.2482ZM51.563 30.3095C51.563 29.3551 52.3112 28.6128 53.1662 28.6128C54.0212 28.6128 54.7693 29.3551 54.7693 30.2035C54.7693 31.0519 54.0212 31.7942 53.1662 31.7942C52.2043 31.9002 51.563 31.264 51.563 30.3095ZM7.10264 26.3858C6.24764 26.1737 5.71327 25.3253 5.92702 24.4769C6.14077 23.6286 6.99577 23.0983 7.85077 23.3104C8.70581 23.5225 9.24019 24.3709 9.02644 25.2193C8.81269 25.9616 8.17139 26.3858 7.53014 26.3858C7.31639 26.4919 7.20952 26.4919 7.10264 26.3858ZM48.9981 20.3411C48.5705 19.5988 48.8912 18.6444 49.6393 18.2202C50.3874 17.796 51.3493 18.1141 51.7768 18.8565C52.2043 19.5988 51.8837 20.5532 51.1356 20.9774C50.9218 21.0835 50.6012 21.1895 50.3874 21.1895C49.8531 21.1895 49.3187 20.8714 48.9981 20.3411ZM11.5914 16.3114C10.9502 15.7811 10.8433 14.7206 11.4846 14.0843C12.0189 13.4481 13.0877 13.342 13.7289 13.9783C14.3702 14.5085 14.4771 15.569 13.8358 16.2053C13.5152 16.5234 13.0877 16.7355 12.6602 16.7355C12.2327 16.7355 11.8052 16.6295 11.5914 16.3114ZM42.1579 12.7057C41.4097 12.1754 41.3029 11.2211 41.7304 10.4787C42.2647 9.73642 43.2267 9.63033 43.9748 10.0545C44.7229 10.5847 44.8298 11.5392 44.4023 12.2815C44.0817 12.7057 43.5473 12.9178 43.1198 12.9178C42.6923 13.0239 42.4785 12.9178 42.1579 12.7057ZM20.2484 9.41828C19.9277 8.56986 20.3552 7.72149 21.1034 7.40335C21.9584 7.08521 22.8134 7.5094 23.134 8.35777C23.4547 9.20619 23.0271 10.0545 22.279 10.3727C22.0653 10.4787 21.8515 10.4787 21.7446 10.4787C20.9965 10.4787 20.4621 10.0546 20.2484 9.41828ZM32.5391 9.1001C31.6841 8.99405 31.0428 8.25172 31.1497 7.40335C31.2566 6.55498 32.0047 5.9187 32.8597 6.02475C33.7147 6.13079 34.3559 6.87312 34.2491 7.72149C34.1422 8.56986 33.5009 9.1001 32.6459 9.1001H32.5391Z" fill="url(#paint1_linear_171_1213)"/>
<path d="M30.9359 48.9734C30.8291 48.2311 31.3634 47.5948 32.0047 47.5948C32.7528 47.4887 33.3941 48.019 33.3941 48.6552C33.5009 49.2915 32.9666 50.0338 32.3253 50.0338H32.2184C31.5772 50.1399 31.0428 49.6097 30.9359 48.9734ZM22.9203 48.9734C22.279 48.7613 21.9583 48.019 22.1721 47.3827C22.3859 46.7465 23.134 46.4284 23.7753 46.6405C24.4165 46.8525 24.7371 47.5948 24.5234 48.2311C24.3096 48.7613 23.8821 49.0794 23.3478 49.0794C23.134 49.0794 23.0271 48.9734 22.9203 48.9734ZM39.5929 46.4284C39.1653 45.8981 39.3791 45.0498 39.9135 44.6256C40.4478 44.2014 41.3029 44.4135 41.7304 44.9437C42.1579 45.4739 41.9441 46.3223 41.4097 46.7465C41.196 46.8525 40.9822 46.9586 40.6616 46.9586C40.2341 46.9586 39.8066 46.7465 39.5929 46.4284ZM15.0115 43.5651C14.5839 43.0348 14.584 42.2925 15.1183 41.7623C15.6527 41.3381 16.5077 41.3381 16.9352 41.8683C17.3627 42.3985 17.3627 43.247 16.8283 43.6712C16.6146 43.8832 16.294 43.9892 15.9733 43.9892C15.5458 43.9892 15.2252 43.8832 15.0115 43.5651ZM46.0054 40.1716C45.3642 39.8534 45.1504 39.1111 45.471 38.4748C45.7917 37.8385 46.5398 37.6265 47.181 37.9446C47.8225 38.2627 48.0362 39.0051 47.7156 39.6413C47.5018 40.0655 47.0742 40.2776 46.5398 40.2776C46.326 40.2776 46.2192 40.1716 46.0054 40.1716ZM10.5227 35.1873C10.3089 34.5511 10.7364 33.8087 11.4845 33.5966C12.1258 33.3845 12.8739 33.8087 13.0877 34.5511C13.3014 35.1873 12.8739 35.9297 12.1258 36.1418C12.0189 36.1418 11.912 36.1418 11.8052 36.1418C11.1639 36.1418 10.6295 35.7176 10.5227 35.1873ZM47.395 30.3092C47.395 29.5668 47.9293 28.9306 48.6775 28.9306C49.4256 28.9306 49.96 29.4608 49.96 30.2031C49.96 30.9455 49.4256 31.4757 48.6775 31.4757C48.0362 31.5817 47.395 31.0515 47.395 30.3092ZM11.3777 27.1277C10.7364 26.9157 10.3089 26.2794 10.4158 25.6431C10.6295 25.0068 11.2708 24.5826 11.912 24.6887C12.5533 24.9008 12.9808 25.5371 12.8739 26.2794C12.767 26.8096 12.2327 27.2338 11.5914 27.2338C11.5914 27.2338 11.4845 27.2338 11.3777 27.1277ZM45.3642 22.2496C45.0435 21.6133 45.2573 20.871 45.8985 20.5529C46.5398 20.2347 47.2879 20.4468 47.6087 21.0831C47.9293 21.7194 47.7156 22.4617 47.0742 22.7798C46.8604 22.8858 46.6467 22.8858 46.4329 22.8858C46.1123 22.8858 45.6848 22.6737 45.3642 22.2496ZM15.0115 18.9621C14.477 18.5379 14.4771 17.6896 14.9046 17.1593C15.3321 16.6291 16.1871 16.6291 16.7215 17.0533C17.2558 17.4775 17.2558 18.3258 16.8283 18.8561C16.6146 19.1742 16.1871 19.2803 15.8665 19.2803C15.5458 19.2803 15.3321 19.1742 15.0115 18.9621ZM39.8066 16.0989C39.2722 15.6747 39.0585 14.9323 39.486 14.296C39.9135 13.7658 40.6616 13.5537 41.3029 13.9779C41.8373 14.4021 42.051 15.1444 41.6235 15.7807C41.4098 16.0989 40.9823 16.311 40.5547 16.311C40.341 16.311 40.0204 16.2049 39.8066 16.0989ZM22.0653 13.4477C21.8515 12.8114 22.1721 12.069 22.8134 11.857C23.4546 11.6449 24.2028 11.963 24.4165 12.5993C24.6303 13.2356 24.3096 13.9779 23.6684 14.19C23.5615 14.2961 23.3478 14.296 23.2409 14.296C22.7065 14.19 22.279 13.8718 22.0653 13.4477ZM32.0047 13.1295C31.2565 13.0235 30.8291 12.3872 30.8291 11.7509C30.9359 11.0086 31.5772 10.5844 32.2184 10.6904C32.9666 10.7965 33.3941 11.4328 33.2872 12.069C33.1803 12.7053 32.6459 13.2356 32.0047 13.2356C32.1116 13.1295 32.1116 13.1295 32.0047 13.1295Z" fill="url(#paint2_linear_171_1213)"/>
</g>
<defs>
<linearGradient id="paint0_linear_171_1213" x1="16.81" y1="-48.2709" x2="101.091" y2="-7.20345" gradientUnits="userSpaceOnUse">
<stop stop-color="#DB00FF"/>
<stop offset="1" stop-color="#00F0FF"/>
</linearGradient>
<linearGradient id="paint1_linear_171_1213" x1="19.232" y1="-33.8218" x2="88.1679" y2="-0.154674" gradientUnits="userSpaceOnUse">
<stop stop-color="#DB00FF"/>
<stop offset="1" stop-color="#00F0FF"/>
</linearGradient>
<linearGradient id="paint2_linear_171_1213" x1="21.2038" y1="-21.5401" x2="76.9726" y2="5.713" gradientUnits="userSpaceOnUse">
<stop stop-color="#DB00FF"/>
<stop offset="1" stop-color="#00F0FF"/>
</linearGradient>
<clipPath id="clip0_171_1213">
<rect width="60" height="60" fill="white" transform="translate(0.5 0.5)"/>
</clipPath>
</defs>
</svg>
