<svg width="41" height="41" viewBox="0 0 41 41" fill="none" xmlns="http://www.w3.org/2000/svg">
<path d="M30.2559 37.1667C31.5819 37.1667 32.8537 36.6399 33.7914 35.7022C34.7291 34.7645 35.2559 33.4928 35.2559 32.1667C35.2559 30.8406 34.7291 29.5688 33.7914 28.6311C32.8537 27.6935 31.5819 27.1667 30.2559 27.1667C28.9298 27.1667 27.658 27.6935 26.7203 28.6311C25.7826 29.5688 25.2559 30.8406 25.2559 32.1667C25.2559 33.4928 25.7826 34.7645 26.7203 35.7022C27.658 36.6399 28.9298 37.1667 30.2559 37.1667ZM30.2559 13.8333C31.5819 13.8333 32.8537 13.3066 33.7914 12.3689C34.7291 11.4312 35.2559 10.1594 35.2559 8.83334C35.2559 7.50726 34.7291 6.23549 33.7914 5.29781C32.8537 4.36013 31.5819 3.83334 30.2559 3.83334C28.9298 3.83334 27.658 4.36013 26.7203 5.29781C25.7826 6.23549 25.2559 7.50726 25.2559 8.83334C25.2559 10.1594 25.7826 11.4312 26.7203 12.3689C27.658 13.3066 28.9298 13.8333 30.2559 13.8333ZM10.2559 25.5C11.5819 25.5 12.8537 24.9732 13.7914 24.0355C14.7291 23.0979 15.2559 21.8261 15.2559 20.5C15.2559 19.1739 14.7291 17.9022 13.7914 16.9645C12.8537 16.0268 11.5819 15.5 10.2559 15.5C8.92978 15.5 7.65801 16.0268 6.72033 16.9645C5.78264 17.9022 5.25586 19.1739 5.25586 20.5C5.25586 21.8261 5.78264 23.0979 6.72033 24.0355C7.65801 24.9732 8.92978 25.5 10.2559 25.5V25.5Z" stroke="url(#paint0_linear_173_1232)" stroke-width="2.5" stroke-linecap="round" stroke-linejoin="round"/>
<path d="M26.089 11.3333L14.4224 18M14.4224 23L26.089 29.6667" stroke="url(#paint1_linear_173_1232)" stroke-width="2.5"/>
<defs>
<linearGradient id="paint0_linear_173_1232" x1="13.4491" y1="-23.4394" x2="57.4156" y2="-4.19406" gradientUnits="userSpaceOnUse">
<stop stop-color="#DB00FF"/>
<stop offset="1" stop-color="#00F0FF"/>
</linearGradient>
<linearGradient id="paint1_linear_173_1232" x1="17.6086" y1="-3.66666" x2="36.2017" y2="2.08797" gradientUnits="userSpaceOnUse">
<stop stop-color="#DB00FF"/>
<stop offset="1" stop-color="#00F0FF"/>
</linearGradient>
</defs>
</svg>
